<svg xmlns="http://www.w3.org/2000/svg" fill="none" viewBox="0 0 24 24">
  <path fill="#42515F" d="M20.317 4.156a19.792 19.792 0 0 0-4.885-1.516.074.074 0 0 0-.079.038c-.21.375-.444.864-.608 1.249a18.271 18.271 0 0 0-5.487 0 12.644 12.644 0 0 0-.617-1.25.077.077 0 0 0-.079-.037 19.737 19.737 0 0 0-4.885 1.516.07.07 0 0 0-.032.027C.533 8.832-.32 13.366.099 17.843a.082.082 0 0 0 .031.057 19.9 19.9 0 0 0 5.993 3.03.078.078 0 0 0 .084-.029 14.09 14.09 0 0 0 1.226-1.994.075.075 0 0 0-.041-.105 13.109 13.109 0 0 1-1.872-.893.077.077 0 0 1-.008-.127c.126-.095.252-.193.372-.292a.074.074 0 0 1 .078-.01c3.927 1.793 8.18 1.793 12.061 0a.074.074 0 0 1 .079.01c.12.098.245.197.372.292.044.032.04.1-.006.127-.598.35-1.22.645-1.873.892a.077.077 0 0 0-.041.106c.36.698.772 1.363 1.225 1.994a.076.076 0 0 0 .084.028 19.834 19.834 0 0 0 6.002-3.03.077.077 0 0 0 .032-.055c.5-5.176-.838-9.673-3.549-13.66a.06.06 0 0 0-.031-.028ZM8.02 15.117c-1.182 0-2.157-1.086-2.157-2.419S6.82 10.28 8.02 10.28c1.21 0 2.176 1.095 2.157 2.42 0 1.332-.956 2.418-2.157 2.418Zm7.975 0c-1.183 0-2.157-1.086-2.157-2.419s.955-2.419 2.157-2.419c1.21 0 2.176 1.095 2.157 2.42 0 1.332-.946 2.418-2.157 2.418Z"/>
</svg>
