<svg xmlns="http://www.w3.org/2000/svg" fill="none" viewBox="0 0 24 24">
  <path fill="#42515F" fill-rule="evenodd" d="M8.16 0h7.68a4.321 4.321 0 0 1 1.98 8.16 4.321 4.321 0 0 1-1.98 8.16 4.313 4.313 0 0 1-3.36-1.605v4.965A4.321 4.321 0 0 1 8.16 24a4.321 4.321 0 0 1-1.98-8.16 4.321 4.321 0 0 1 0-7.68A4.321 4.321 0 0 1 8.16 0ZM4.8 4.32A3.361 3.361 0 0 1 8.16.96h3.36v6.72H8.15A3.361 3.361 0 0 1 4.8 4.32Zm6.72 7.634v3.406H8.16A3.361 3.361 0 0 1 4.8 12c0-1.851 1.5-3.354 3.35-3.36h3.37v3.314Zm.96.086v-.08a3.362 3.362 0 0 1 3.346-3.32h.024A3.361 3.361 0 0 1 19.2 12a3.361 3.361 0 0 1-3.36 3.36 3.362 3.362 0 0 1-3.36-3.32Zm.645-3.4a4.347 4.347 0 0 0-.645.645V8.64h.645Zm2.725-.96h-3.37V.96h3.36a3.362 3.362 0 0 1 3.36 3.36c0 1.851-1.5 3.354-3.35 3.36Zm-7.69 8.64a3.362 3.362 0 0 0-3.36 3.36 3.361 3.361 0 0 0 3.36 3.36 3.361 3.361 0 0 0 3.36-3.36v-3.36H8.16Z" clip-rule="evenodd"/>
</svg>
