<svg xmlns="http://www.w3.org/2000/svg" fill="none" viewBox="0 0 24 24">
  <path fill="#42515F" fill-rule="evenodd" d="M5 4.797c1.517-.312 2.67-.33 3.626-.211 1.119.14 2.018.473 3.023.85l.03.012c.987.37 2.08.78 3.447.95 1.104.138 2.355.118 3.874-.158v8.963c-1.517.311-2.67.33-3.626.21-1.119-.139-2.018-.473-3.023-.85l-.03-.01c-.987-.37-2.08-.78-3.447-.952-1.104-.138-2.355-.117-3.874.16V4.796Zm14.758-.767c-1.9.475-3.275.522-4.384.384-1.119-.14-2.018-.473-3.023-.85l-.03-.012c-.987-.37-2.08-.78-3.447-.95-1.387-.174-3.006-.098-5.096.423A1 1 0 0 0 3 4v17a1 1 0 1 0 2 0v-5.203c1.517-.312 2.67-.33 3.626-.211 1.119.14 2.018.473 3.023.85l.03.012c.987.37 2.08.78 3.447.95 1.391.174 3.017.097 5.117-.428A1 1 0 0 0 21 16V5a1 1 0 0 0-1.242-.97Z" clip-rule="evenodd"/>
</svg>
