<svg xmlns="http://www.w3.org/2000/svg" fill="none" viewBox="0 0 24 24">
  <path fill="#42515F" d="m9.12.35.268 1.091A10.896 10.896 0 0 0 6.375 2.69l-.577-.965A11.851 11.851 0 0 1 9.12.35Zm5.76 0-.269 1.091c1.062.263 2.078.683 3.014 1.248l.583-.965A11.936 11.936 0 0 0 14.881.35ZM1.725 5.795A11.916 11.916 0 0 0 .35 9.119l1.091.27A10.896 10.896 0 0 1 2.69 6.374l-.965-.58ZM1.124 12c0-.546.041-1.09.123-1.63L.136 10.2a12 12 0 0 0 0 3.597l1.111-.167A10.893 10.893 0 0 1 1.124 12Zm17.078 10.272-.577-.961c-.934.565-1.95.986-3.01 1.248l.27 1.09a11.942 11.942 0 0 0 3.317-1.377ZM22.876 12c0 .546-.041 1.09-.123 1.63l1.111.167a12 12 0 0 0 0-3.597l-1.111.17c.082.54.123 1.085.123 1.63Zm.774 2.877-1.091-.269a10.874 10.874 0 0 1-1.248 3.017l.965.58a11.893 11.893 0 0 0 1.374-3.327Zm-10.02 7.876c-1.08.164-2.18.164-3.26 0l-.167 1.111c1.191.181 2.403.181 3.594 0l-.167-1.11Zm7.125-4.302a10.845 10.845 0 0 1-2.304 2.3l.668.908a12.108 12.108 0 0 0 2.543-2.534l-.907-.674ZM18.451 3.245c.88.648 1.656 1.425 2.304 2.305l.907-.675a12.09 12.09 0 0 0-2.537-2.537l-.674.907ZM3.245 5.55A10.862 10.862 0 0 1 5.55 3.245l-.676-.907a12.09 12.09 0 0 0-2.536 2.537l.907.675Zm19.03.245-.964.58c.565.934.986 1.95 1.248 3.01l1.09-.27c-.287-1.17-.75-2.29-1.373-3.32ZM10.37 1.247a10.88 10.88 0 0 1 3.26 0l.167-1.111a11.977 11.977 0 0 0-3.594 0l.167 1.111ZM3.821 21.959l-2.322.538.542-2.321-1.094-.256-.542 2.322a1.125 1.125 0 0 0 1.35 1.353l2.322-.535-.256-1.101Zm-2.642-3.041 1.098.252.375-1.61a10.78 10.78 0 0 1-1.21-2.952l-1.092.27c.246.994.617 1.953 1.105 2.853l-.276 1.187Zm5.25 2.434-1.61.375.257 1.098 1.183-.276c.9.489 1.859.86 2.853 1.104l.27-1.09a10.794 10.794 0 0 1-2.943-1.218l-.01.007ZM12 2.249a9.753 9.753 0 0 0-9.747 9.754 9.774 9.774 0 0 0 1.496 5.183l-.937 4.002 3.999-.937c4.558 2.867 10.58 1.5 13.446-3.055 2.868-4.555 1.504-10.576-3.05-13.447A9.775 9.775 0 0 0 12 2.25Z"/>
</svg>
