<svg xmlns="http://www.w3.org/2000/svg" fill="none" viewBox="0 0 24 24">
  <path fill="#42515F" d="M12.048 19.223c-3.987 0-5.809-2.031-5.809-3.52a1.292 1.292 0 0 1 1.363-1.293c1.707 0 1.26 2.56 4.446 2.56 1.628 0 2.584-.98 2.584-1.9 0-.553-.316-1.185-1.391-1.438l-3.556-.897c-2.857-.727-3.355-2.316-3.355-3.79 0-3.058 2.798-4.164 5.46-4.164 2.455 0 5.37 1.355 5.37 3.189 0 .79-.66 1.213-1.426 1.213-1.458 0-1.213-2.047-4.145-2.047-1.458 0-2.224.684-2.224 1.64 0 .956 1.134 1.28 2.13 1.497l2.623.593c2.877.648 3.643 2.335 3.643 3.951 0 2.486-1.924 4.406-5.717 4.406h.004Zm11.008-5.26c.114-.652.17-1.313.17-1.975A11.23 11.23 0 0 0 10.052.881 6.607 6.607 0 0 0 6.742 0 6.717 6.717 0 0 0 .944 10.04a11.237 11.237 0 0 0 13.008 13.08 6.602 6.602 0 0 0 3.308.88 6.717 6.717 0 0 0 5.797-10.036Z"/>
</svg>
