<svg xmlns="http://www.w3.org/2000/svg" fill="none" viewBox="0 0 24 24">
  <path fill="#42515F" d="M23.913 17.458c-.165-.454-.484-.699-.846-.895-.067-.037-.128-.074-.183-.098l-.331-.166c-1.128-.6-2.01-1.348-2.617-2.243a5.096 5.096 0 0 1-.448-.796c-.055-.147-.049-.233-.012-.313a.5.5 0 0 1 .147-.153c.196-.129.392-.258.527-.343.24-.16.435-.282.558-.368.46-.325.784-.668.987-1.054.288-.54.325-1.17.104-1.74-.307-.81-1.066-1.306-1.992-1.306-.196 0-.386.018-.582.061l-.153.037a17.947 17.947 0 0 0-.055-1.71c-.172-2.016-.883-3.07-1.619-3.91a6.473 6.473 0 0 0-1.642-1.324C14.641.5 13.372.175 11.993.175S9.352.5 8.236 1.137a6.49 6.49 0 0 0-1.642 1.324c-.736.84-1.44 1.9-1.618 3.91a17.96 17.96 0 0 0-.055 1.71 2.63 2.63 0 0 0-.73-.098c-.925 0-1.685.502-1.991 1.305a2.082 2.082 0 0 0 .104 1.74c.202.387.527.73.987 1.055.122.086.312.208.557.368.129.085.319.208.509.33a.533.533 0 0 1 .165.166c.037.08.043.166-.018.325a4.94 4.94 0 0 1-.441.778c-.595.87-1.453 1.612-2.544 2.206-.576.307-1.176.51-1.434 1.202-.19.52-.067 1.109.417 1.612.178.183.386.343.613.465.472.258.974.46 1.501.6.11.031.209.074.3.136.178.153.154.386.387.729.116.178.27.33.441.453.496.344 1.054.362 1.643.387.533.018 1.133.043 1.826.27.288.091.582.275.925.49.828.508 1.955 1.2 3.849 1.2 1.894 0 3.027-.698 3.861-1.207.343-.208.637-.392.913-.484.687-.227 1.293-.251 1.826-.27.589-.024 1.146-.042 1.643-.386.208-.147.38-.33.503-.551.171-.288.165-.49.324-.631a.838.838 0 0 1 .282-.129 6.79 6.79 0 0 0 1.52-.607c.24-.128.46-.3.644-.502l.006-.006c.478-.49.594-1.067.404-1.57Zm-1.679.9c-1.024.564-1.71.503-2.237.846-.453.288-.184.913-.509 1.14-.404.276-1.593-.018-3.125.49-1.269.417-2.072 1.625-4.351 1.625-2.28 0-3.065-1.202-4.352-1.625-1.532-.508-2.72-.208-3.125-.49-.325-.227-.062-.852-.509-1.14-.533-.343-1.213-.282-2.237-.845-.656-.362-.282-.583-.067-.687 3.714-1.796 4.308-4.572 4.333-4.78.03-.251.067-.447-.209-.699-.263-.245-1.44-.974-1.771-1.201-.54-.38-.778-.754-.6-1.22.122-.318.422-.44.735-.44.098 0 .196.011.294.03.594.129 1.17.423 1.502.508.042.013.08.019.122.019.178 0 .24-.092.227-.294-.037-.65-.129-1.912-.025-3.095.141-1.624.662-2.433 1.287-3.144.3-.343 1.704-1.827 4.394-1.827 2.691 0 4.094 1.477 4.395 1.82.625.712 1.146 1.52 1.287 3.145.104 1.182.012 2.445-.03 3.095-.013.214.048.294.226.294.043 0 .08-.006.122-.019.331-.08.907-.38 1.502-.508a1.2 1.2 0 0 1 .294-.031c.313 0 .613.123.736.441.177.466-.062.84-.601 1.22-.325.227-1.502.956-1.771 1.201-.276.251-.24.447-.209.699.025.208.62 2.984 4.333 4.78.22.104.589.331-.061.693Z"/>
</svg>
