<svg xmlns="http://www.w3.org/2000/svg" fill="none" viewBox="0 0 24 24">
  <path fill="#42515F" d="M12 0C5.373 0 0 5.372 0 12s5.373 12 12 12 12-5.372 12-12S18.627 0 12 0Zm5.855 17.299a1.047 1.047 0 0 1-1.422.4 12.426 12.426 0 0 0-4.857-1.529 12.493 12.493 0 0 0-5.076.526 1.044 1.044 0 0 1-.635-1.988 14.528 14.528 0 0 1 5.922-.614c2.011.205 3.917.805 5.666 1.785.503.28.683.917.402 1.42Zm1.436-3.645a1.042 1.042 0 0 1-1.407.443 16.31 16.31 0 0 0-5.917-1.765 16.26 16.26 0 0 0-6.19.551 1.043 1.043 0 0 1-.579-2.005 18.384 18.384 0 0 1 6.98-.623c2.35.24 4.593.909 6.671 1.992.51.266.71.896.442 1.407Zm.52-3.033a1.05 1.05 0 0 1-.465-.109 20.164 20.164 0 0 0-6.99-2.017 20.12 20.12 0 0 0-7.265.574 1.044 1.044 0 0 1-.536-2.017 22.242 22.242 0 0 1 8.014-.633 22.218 22.218 0 0 1 7.707 2.225 1.044 1.044 0 0 1-.465 1.977Z"/>
</svg>
