<svg xmlns="http://www.w3.org/2000/svg" width="24" height="24" fill="currentColor" viewBox="0 0 24 24">
  <g class="circle-error">
    <path fill="#556573" d="M12 4a8 8 0 1 0 0 16 8 8 0 0 0 0-16ZM2 12C2 6.477 6.477 2 12 2s10 4.477 10 10-4.477 10-10 10S2 17.523 2 12Zm5.793-4.207a1 1 0 0 1 1.414 0L12 10.586l2.793-2.793a1 1 0 1 1 1.414 1.414L13.414 12l2.793 2.793a1 1 0 0 1-1.414 1.414L12 13.414l-2.793 2.793a1 1 0 0 1-1.414-1.414L10.586 12 7.793 9.207a1 1 0 0 1 0-1.414Z" class="Vector"/>
  </g>
</svg>
