<svg xmlns="http://www.w3.org/2000/svg" width="24" height="24" fill="currentColor" viewBox="0 0 24 24">
  <g class="clipboard-list">
    <g class="Vector">
      <path fill="#556573" d="M9 11.5a1 1 0 1 0 0-2 1 1 0 0 0 0 2Zm2-1a1 1 0 0 1 1-1h3a1 1 0 1 1 0 2h-3a1 1 0 0 1-1-1Zm1 2a1 1 0 1 0 0 2h3a1 1 0 1 0 0-2h-3Zm0 3a1 1 0 1 0 0 2h3a1 1 0 1 0 0-2h-3Zm-2-2a1 1 0 1 1-2 0 1 1 0 0 1 2 0Zm-1 4a1 1 0 1 0 0-2 1 1 0 0 0 0 2Z"/>
      <path fill="#556573" d="M9 2a1 1 0 0 0-1 1H6a2 2 0 0 0-2 2v15a2 2 0 0 0 2 2h12a2 2 0 0 0 2-2V5a2 2 0 0 0-2-2h-2a1 1 0 0 0-1-1H9Zm7 3h2v15H6V5h2v1a1 1 0 0 0 1 1h6a1 1 0 0 0 1-1V5Zm-6 0V4h4v1h-4Z"/>
    </g>
  </g>
</svg>
