<svg xmlns="http://www.w3.org/2000/svg" width="24" height="24" fill="currentColor" viewBox="0 0 24 24">
  <g class="discord">
    <path fill="#556573" d="M20.317 4.156a19.791 19.791 0 0 0-4.885-1.515.074.074 0 0 0-.079.037c-.21.375-.444.865-.608 1.25a18.271 18.271 0 0 0-5.487 0 12.643 12.643 0 0 0-.617-1.25.077.077 0 0 0-.079-.037 19.736 19.736 0 0 0-4.885 1.515.07.07 0 0 0-.032.028C.533 8.832-.32 13.366.099 17.844a.082.082 0 0 0 .031.056 19.9 19.9 0 0 0 5.993 3.03.078.078 0 0 0 .084-.028 14.09 14.09 0 0 0 1.226-1.994.076.076 0 0 0-.041-.106 13.109 13.109 0 0 1-1.872-.892.077.077 0 0 1-.008-.128 9.74 9.74 0 0 0 .372-.291.074.074 0 0 1 .078-.01c3.927 1.792 8.18 1.792 12.061 0a.074.074 0 0 1 .079.009c.12.099.245.198.372.292.044.032.04.1-.006.128-.598.35-1.22.645-1.873.891a.077.077 0 0 0-.041.107c.36.698.772 1.363 1.225 1.993a.076.076 0 0 0 .084.029 19.834 19.834 0 0 0 6.002-3.03.077.077 0 0 0 .032-.055c.5-5.177-.838-9.674-3.549-13.66a.06.06 0 0 0-.031-.029ZM8.02 15.118c-1.182 0-2.157-1.086-2.157-2.42 0-1.333.956-2.418 2.157-2.418 1.21 0 2.176 1.095 2.157 2.418 0 1.334-.956 2.42-2.157 2.42Zm7.975 0c-1.183 0-2.157-1.086-2.157-2.42 0-1.333.955-2.418 2.157-2.418 1.21 0 2.176 1.095 2.157 2.418 0 1.334-.946 2.42-2.157 2.42Z" class="Vector"/>
  </g>
</svg>
