<svg xmlns="http://www.w3.org/2000/svg" width="24" height="24" fill="currentColor" viewBox="0 0 24 24">
  <g class="drop">
    <g class="Vector">
      <path fill="#556573" d="M12.65 2.24a1 1 0 0 0-1.301 0l-.089.078a31.47 31.47 0 0 0-1.053.982 34.258 34.258 0 0 0-2.479 2.69c-.902 1.093-1.823 2.371-2.522 3.72C4.511 11.051 4 12.528 4 14a8 8 0 1 0 16 0c0-1.472-.511-2.948-1.206-4.289-.7-1.349-1.62-2.627-2.522-3.722a34.257 34.257 0 0 0-3.299-3.462l-.322-.286ZM6 14c0-1.028.364-2.177.981-3.368.614-1.182 1.443-2.341 2.29-3.371A32.252 32.252 0 0 1 12 4.35a32.258 32.258 0 0 1 2.728 2.909c.848 1.03 1.677 2.19 2.29 3.372.618 1.191.982 2.34.982 3.368a6 6 0 0 1-12 0Z"/>
      <path fill="#556573" d="M8.36 14.041a1 1 0 0 0-.674 1.244 4.508 4.508 0 0 0 3.029 3.028 1 1 0 0 0 .57-1.916 2.508 2.508 0 0 1-1.682-1.682 1 1 0 0 0-1.243-.674Z"/>
    </g>
  </g>
</svg>
