<svg xmlns="http://www.w3.org/2000/svg" width="30" height="27" fill="currentColor" viewBox="0 0 30 27">
  <g class="expand">
    <path fill="#556573" d="M21.144 2.427c-.668 0-1.21.495-1.21 1.105s.542 1.105 1.21 1.105h1.917l-5.19 4.744a1.039 1.039 0 0 0 0 1.562 1.291 1.291 0 0 0 1.71 0L24.77 6.2v1.752c0 .61.542 1.105 1.21 1.105.667 0 1.208-.495 1.208-1.105v-4.42c0-.61-.54-1.105-1.209-1.105h-4.836ZM5.424 20.754v-1.752c0-.61-.54-1.105-1.208-1.105-.668 0-1.21.494-1.21 1.105v4.42c0 .61.542 1.104 1.21 1.104h4.836c.668 0 1.21-.494 1.21-1.104 0-.61-.542-1.105-1.21-1.105H7.135l5.19-4.744a1.039 1.039 0 0 0 0-1.563 1.291 1.291 0 0 0-1.71 0l-5.19 4.744Z" class="Vector"/>
  </g>
</svg>
