<svg xmlns="http://www.w3.org/2000/svg" width="24" height="24" fill="currentColor" viewBox="0 0 24 24">
  <g class="favorite-half">
    <path fill="#556573" d="M12 2.5a1 1 0 0 1 .895.553l2.578 5.158 5.671.824a1 1 0 0 1 .554 1.706l-4.127 4.024.928 5.674a1 1 0 0 1-1.455 1.044L12 18.807l-5.044 2.676a1 1 0 0 1-1.455-1.044l.928-5.674-4.127-4.024a1 1 0 0 1 .554-1.706l5.67-.824 2.58-5.158A1 1 0 0 1 12 2.5Zm0 3.236v11.056s.176-.156.469 0l3.731 1.98-.687-4.198a1 1 0 0 1 .289-.877l3.05-2.974-4.183-.608a1 1 0 0 1-.75-.543L12 5.736Z" class="Vector"/>
  </g>
</svg>
