<svg xmlns="http://www.w3.org/2000/svg" width="24" height="24" fill="currentColor" viewBox="0 0 24 24">
  <g class="fog">
    <path fill="#556573" d="M11 6a1 1 0 0 1 1-1h9a1 1 0 1 1 0 2h-9a1 1 0 0 1-1-1Zm-9 4a1 1 0 0 1 1-1h11a1 1 0 1 1 0 2H3a1 1 0 0 1-1-1Zm3 3a1 1 0 1 0 0 2h9a1 1 0 1 0 0-2H5Zm12 0a1 1 0 1 0 0 2h4a1 1 0 1 0 0-2h-4Zm0-4a1 1 0 1 0 0 2h2a1 1 0 1 0 0-2h-2ZM7 18a1 1 0 0 1 1-1h11a1 1 0 1 1 0 2H8a1 1 0 0 1-1-1Zm-4-1a1 1 0 1 0 0 2h2a1 1 0 1 0 0-2H3ZM5 5a1 1 0 0 0 0 2h4a1 1 0 0 0 0-2H5Z" class="Vector"/>
  </g>
</svg>
