<svg xmlns="http://www.w3.org/2000/svg" width="24" height="24" fill="currentColor" viewBox="0 0 24 24">
  <g class="github" clip-path="url(#a)">
    <g class="Vector">
      <path fill="#556573" fill-rule="evenodd" d="M12 .5a12.043 12.043 0 0 0-7.773 2.847A11.917 11.917 0 0 0 .16 10.522a11.877 11.877 0 0 0 1.576 8.086 11.99 11.99 0 0 0 6.469 5.145c.596.11.82-.259.82-.573 0-.314-.011-1.225-.015-2.22-3.339.72-4.044-1.41-4.044-1.41-.544-1.383-1.331-1.746-1.331-1.746-1.09-.739.081-.725.081-.725 1.206.085 1.84 1.23 1.84 1.23 1.07 1.824 2.808 1.297 3.491.989.108-.773.42-1.298.763-1.597-2.666-.3-5.468-1.324-5.468-5.896a4.607 4.607 0 0 1 1.236-3.202c-.123-.3-.535-1.514.117-3.162 0 0 1.008-.32 3.3 1.223a11.453 11.453 0 0 1 6.01 0c2.29-1.543 3.296-1.223 3.296-1.223.654 1.644.243 2.857.12 3.162a4.597 4.597 0 0 1 1.238 3.206c0 4.582-2.808 5.592-5.479 5.886.43.372.813 1.097.813 2.211 0 1.597-.014 2.88-.014 3.274 0 .318.216.69.825.573a11.99 11.99 0 0 0 6.47-5.146 11.877 11.877 0 0 0 1.575-8.087 11.917 11.917 0 0 0-4.07-7.175A12.043 12.043 0 0 0 12.004.5H12Z" clip-rule="evenodd"/>
      <path fill="#556573" d="M4.544 17.632c-.025.06-.12.077-.198.036-.078-.042-.135-.119-.108-.18.028-.061.122-.077.2-.036.077.042.136.12.106.18Zm.487.539a.2.2 0 0 1-.246-.055c-.078-.083-.094-.197-.034-.249.06-.051.167-.027.245.055.077.083.095.198.035.25Zm.473.686c-.073.051-.198 0-.268-.103a.197.197 0 0 1 0-.284c.074-.05.199 0 .268.1.07.101.072.236 0 .287Zm.642.663c-.066.074-.199.054-.308-.045-.11-.098-.135-.233-.07-.304.066-.071.2-.051.312.046.114.096.136.233.066.304Zm.9.388c-.03.093-.165.134-.3.095-.135-.04-.224-.15-.199-.245.026-.095.163-.138.3-.095.138.044.225.148.2.245Zm.982.067c0 .097-.111.18-.255.182-.143.002-.26-.077-.26-.174 0-.097.111-.18.255-.182.143-.002.26.076.26.174Zm.914-.152c.018.097-.082.198-.225.221-.143.024-.268-.033-.286-.128-.018-.095.086-.198.225-.223.139-.026.268.033.286.13Z"/>
    </g>
  </g>
  <defs>
    <clipPath id="a" class="a">
      <path fill="#fff" d="M0 0h24v24H0z"/>
    </clipPath>
  </defs>
</svg>
