<svg xmlns="http://www.w3.org/2000/svg" width="24" height="24" fill="currentColor" viewBox="0 0 24 24">
  <g class="google" clip-path="url(#a)">
    <path fill="#556573" fill-rule="evenodd" d="M16.843 6.548a6.52 6.52 0 0 0-4.603-1.8c-3.13 0-5.79 2.113-6.737 4.957a7.188 7.188 0 0 0 0 4.594h.004c.952 2.84 3.607 4.952 6.737 4.952 1.616 0 3.004-.413 4.079-1.143v-.003a5.554 5.554 0 0 0 2.399-3.647H12.24v-4.62h11.319c.14.802.207 1.622.207 2.438 0 3.65-1.304 6.735-3.574 8.825l.002.002C18.206 22.937 15.476 24 12.24 24a12.002 12.002 0 0 1-10.724-6.61 12.01 12.01 0 0 1 0-10.776A11.998 11.998 0 0 1 12.24 0a11.533 11.533 0 0 1 8.03 3.122l-3.427 3.426Z" class="Vector" clip-rule="evenodd"/>
  </g>
  <defs>
    <clipPath id="a" class="a">
      <path fill="#fff" d="M0 0h24v24H0z"/>
    </clipPath>
  </defs>
</svg>
