<svg xmlns="http://www.w3.org/2000/svg" width="24" height="24" fill="currentColor" viewBox="0 0 24 24">
  <g class="map">
    <path fill="#556573" d="M8.684 3.051a1 1 0 0 1 .632 0L15 4.946l4.367-1.456A2 2 0 0 1 22 5.387V17.28a2 2 0 0 1-1.367 1.898l-5.317 1.772a1 1 0 0 1-.632 0L9 19.054 4.632 20.51A2 2 0 0 1 2 18.613V6.72a2 2 0 0 1 1.368-1.898L8.684 3.05ZM10 17.28l4 1.334V6.72l-4-1.334V17.28ZM8 5.387 4 6.721v11.892l4-1.334V5.387Zm8 1.334v11.892l4-1.334V5.387l-4 1.334Z" class="Vector"/>
  </g>
</svg>
