<svg xmlns="http://www.w3.org/2000/svg" width="24" height="24" fill="currentColor" viewBox="0 0 24 24">
  <g class="message-alt">
    <g class="Vector">
      <path fill="#556573" d="M2 6a2 2 0 0 1 2-2h16a2 2 0 0 1 2 2v11a2 2 0 0 1-2 2h-4.586l-2.707 2.707a1 1 0 0 1-1.414 0L8.586 19H4a2 2 0 0 1-2-2V6Zm18 0H4v11h5a1 1 0 0 1 .707.293L12 19.586l2.293-2.293A1 1 0 0 1 15 17h5V6Z"/>
      <path fill="#556573" d="M13.5 11.5a1.5 1.5 0 1 1-3 0 1.5 1.5 0 0 1 3 0Zm4 0a1.5 1.5 0 1 1-3 0 1.5 1.5 0 0 1 3 0Zm-8 0a1.5 1.5 0 1 1-3 0 1.5 1.5 0 0 1 3 0Z"/>
    </g>
  </g>
</svg>
