<svg xmlns="http://www.w3.org/2000/svg" width="30" height="27" fill="currentColor" viewBox="0 0 30 27">
  <g class="minimize">
    <path fill="#556573" d="M26.875 4.314a1.039 1.039 0 0 0 0-1.563 1.291 1.291 0 0 0-1.71 0l-5.191 4.743V5.742c0-.61-.541-1.105-1.21-1.105-.667 0-1.208.495-1.208 1.105v4.42c0 .61.54 1.105 1.209 1.105H23.6c.668 0 1.21-.495 1.21-1.105s-.542-1.105-1.21-1.105h-1.917l5.19-4.743ZM3.4 24.203a1.039 1.039 0 0 1 0-1.563l5.19-4.743H6.674c-.668 0-1.209-.495-1.209-1.105s.541-1.105 1.21-1.105h4.836c.668 0 1.209.495 1.209 1.105v4.42c0 .61-.541 1.105-1.21 1.105-.667 0-1.208-.495-1.208-1.105v-1.753L5.11 24.203a1.291 1.291 0 0 1-1.71 0Z" class="Vector"/>
  </g>
</svg>
