<svg xmlns="http://www.w3.org/2000/svg" width="24" height="24" fill="currentColor" viewBox="0 0 24 24">
  <g class="settings">
    <g class="Vector">
      <path fill="#556573" d="M12 4a1 1 0 0 0-1 1c0 1.692-2.046 2.54-3.243 1.343a1 1 0 1 0-1.414 1.414C7.54 8.954 6.693 11 5 11a1 1 0 1 0 0 2c1.692 0 2.54 2.046 1.343 3.243a1 1 0 0 0 1.414 1.414C8.954 16.46 11 17.307 11 19a1 1 0 1 0 2 0c0-1.692 2.046-2.54 3.243-1.343a1 1 0 1 0 1.414-1.414C16.46 15.046 17.307 13 19 13a1 1 0 1 0 0-2c-1.692 0-2.54-2.046-1.343-3.243a1 1 0 0 0-1.414-1.414C15.046 7.54 13 6.693 13 5a1 1 0 0 0-1-1Zm-2.992.777a3 3 0 0 1 5.984 0 3 3 0 0 1 4.23 4.231 3 3 0 0 1 .001 5.984 3 3 0 0 1-4.231 4.23 3 3 0 0 1-5.984 0 3 3 0 0 1-4.231-4.23 3 3 0 0 1 0-5.984 3 3 0 0 1 4.231-4.231Z"/>
      <path fill="#556573" d="M12 10a2 2 0 1 0 0 4 2 2 0 0 0 0-4Zm-2.828-.828a4 4 0 1 1 5.656 5.656 4 4 0 0 1-5.656-5.656Z"/>
    </g>
  </g>
</svg>
