<svg xmlns="http://www.w3.org/2000/svg" width="24" height="24" fill="currentColor" viewBox="0 0 24 24">
  <g class="snapchat">
    <path fill="#556573" d="M23.913 17.457c-.165-.453-.484-.698-.846-.894-.067-.037-.128-.074-.183-.098l-.331-.166c-1.128-.6-2.01-1.348-2.617-2.243a5.097 5.097 0 0 1-.448-.797c-.055-.147-.049-.232-.012-.312a.5.5 0 0 1 .147-.153c.196-.13.392-.258.527-.344.24-.159.435-.281.558-.367.46-.325.784-.668.987-1.055.288-.539.325-1.17.104-1.74-.307-.809-1.066-1.305-1.992-1.305-.196 0-.386.018-.582.06l-.153.038a17.947 17.947 0 0 0-.055-1.71c-.172-2.017-.883-3.07-1.619-3.91a6.473 6.473 0 0 0-1.642-1.324C14.641.5 13.372.175 11.993.175S9.352.5 8.236 1.137a6.49 6.49 0 0 0-1.642 1.324c-.736.84-1.44 1.9-1.618 3.91a17.96 17.96 0 0 0-.055 1.71 2.63 2.63 0 0 0-.73-.098c-.925 0-1.685.502-1.991 1.305a2.082 2.082 0 0 0 .104 1.74c.202.387.527.73.987 1.055.122.085.312.208.557.367.129.086.319.209.509.331a.533.533 0 0 1 .165.166c.037.08.043.165-.018.325a4.88 4.88 0 0 1-.441.778c-.595.87-1.453 1.612-2.544 2.206-.576.307-1.176.509-1.434 1.201-.19.521-.067 1.11.417 1.612.178.184.386.343.613.466a6.8 6.8 0 0 0 1.501.6c.11.031.209.074.3.135.178.154.154.387.387.73.116.177.27.33.441.453.496.344 1.054.362 1.643.386.533.019 1.133.043 1.826.27.288.092.582.276.925.49.828.509 1.955 1.201 3.849 1.201 1.894 0 3.027-.698 3.861-1.207.343-.208.637-.392.913-.484.687-.227 1.293-.251 1.826-.27.589-.024 1.146-.042 1.643-.386.208-.147.38-.33.503-.551.171-.288.165-.49.324-.632a.842.842 0 0 1 .282-.128 6.784 6.784 0 0 0 1.52-.607c.24-.129.46-.3.644-.503l.006-.006c.478-.49.594-1.066.404-1.569Zm-1.679.901c-1.024.564-1.71.503-2.237.846-.453.288-.184.913-.509 1.14-.404.276-1.593-.018-3.125.49-1.269.417-2.072 1.624-4.351 1.624-2.28 0-3.065-1.2-4.352-1.624-1.532-.508-2.72-.208-3.125-.49-.325-.227-.062-.852-.509-1.14-.533-.343-1.213-.282-2.237-.846-.656-.361-.282-.582-.067-.686 3.714-1.796 4.308-4.572 4.333-4.78.03-.252.067-.448-.209-.699-.263-.245-1.44-.974-1.771-1.201-.54-.38-.778-.754-.6-1.22.122-.319.422-.441.735-.441.098 0 .196.012.294.03.594.13 1.17.423 1.502.51.042.011.08.018.122.018.178 0 .24-.092.227-.295-.037-.65-.129-1.912-.025-3.094.141-1.625.662-2.434 1.287-3.144.3-.344 1.704-1.827 4.394-1.827 2.691 0 4.094 1.477 4.395 1.82.625.711 1.146 1.52 1.287 3.144.104 1.183.012 2.446-.03 3.095-.013.215.048.294.226.294.043 0 .08-.006.122-.018.331-.08.907-.38 1.502-.509a1.2 1.2 0 0 1 .294-.03c.313 0 .613.122.736.441.177.466-.062.84-.601 1.22-.325.226-1.502.956-1.771 1.2-.276.252-.24.448-.209.7.025.208.62 2.984 4.333 4.78.22.104.589.33-.061.692Z" class="Vector"/>
  </g>
</svg>
