<svg xmlns="http://www.w3.org/2000/svg" width="24" height="24" fill="currentColor" viewBox="0 0 24 24">
  <g class="snow">
    <path fill="#556573" d="M11 2a6 6 0 0 0-5.986 6.41 5 5 0 0 0-1.322 8.34 1 1 0 1 0 1.324-1.5 3.002 3.002 0 0 1 1.324-5.178 1 1 0 0 0 .757-1.193A4 4 0 1 1 14.92 7.2a1 1 0 0 0 .999.8H16a4 4 0 0 1 2.4 7.2 1 1 0 0 0 1.201 1.6 6 6 0 0 0-2.93-10.762A6.002 6.002 0 0 0 11 2Zm3.5 15a1.5 1.5 0 1 0 0-3 1.5 1.5 0 0 0 0 3Zm-3.5-.5a1.5 1.5 0 1 1-3 0 1.5 1.5 0 0 1 3 0Zm4 3a1.5 1.5 0 1 1-3 0 1.5 1.5 0 0 1 3 0Zm-5 1a1.5 1.5 0 1 1-3 0 1.5 1.5 0 0 1 3 0Z" class="Vector"/>
  </g>
</svg>
