<svg xmlns="http://www.w3.org/2000/svg" width="24" height="24" fill="currentColor" viewBox="0 0 24 24">
  <g class="sun">
    <path fill="#556573" d="M12 2a1 1 0 0 1 1 1v1a1 1 0 1 1-2 0V3a1 1 0 0 1 1-1Zm7.071 2.929a1 1 0 0 1 0 1.414l-.707.707a1 1 0 1 1-1.414-1.414l.707-.707a1 1 0 0 1 1.414 0Zm-14.142 0a1 1 0 0 1 1.414 0l.707.707A1 1 0 0 1 5.636 7.05l-.707-.707a1 1 0 0 1 0-1.414ZM12 8a4 4 0 1 0 0 8 4 4 0 0 0 0-8Zm-6 4a6 6 0 1 1 12 0 6 6 0 0 1-12 0Zm-4 0a1 1 0 0 1 1-1h1a1 1 0 1 1 0 2H3a1 1 0 0 1-1-1Zm17 0a1 1 0 0 1 1-1h1a1 1 0 1 1 0 2h-1a1 1 0 0 1-1-1ZM5.636 16.95a1 1 0 0 1 1.414 1.414l-.707.707a1 1 0 0 1-1.414-1.414l.707-.707Zm11.314 1.414a1 1 0 0 1 1.414-1.414l.707.707a1 1 0 0 1-1.414 1.414l-.707-.707ZM12 19a1 1 0 0 1 1 1v1a1 1 0 1 1-2 0v-1a1 1 0 0 1 1-1Z" class="Vector"/>
  </g>
</svg>
