<svg xmlns="http://www.w3.org/2000/svg" width="24" height="24" fill="currentColor" viewBox="0 0 24 24">
  <g class="sunset">
    <path fill="#556573" fill-rule="evenodd" d="M8 16a4 4 0 1 1 6.646 3H9.354A3.989 3.989 0 0 1 8 16Zm.97 5H21a1 1 0 1 0 0-2h-3.803a6 6 0 1 0-10.394 0H3a1 1 0 1 0 0 2h5.97ZM19.071 8.929a1 1 0 0 1 0 1.414l-.707.707a1 1 0 0 1-1.414-1.414l.707-.707a1 1 0 0 1 1.414 0ZM4 16.999a1 1 0 1 0 0-2H3a1 1 0 1 0 0 2h1Zm18-1a1 1 0 0 1-1 1h-1a1 1 0 1 1 0-2h1a1 1 0 0 1 1 1ZM5.636 11.05A1 1 0 1 0 7.05 9.637l-.707-.707a1 1 0 0 0-1.414 1.414l.707.707ZM13 5.586V3a1 1 0 1 0-2 0v2.585l-.293-.293a1 1 0 1 0-1.414 1.415l1.999 1.999.01.01a.997.997 0 0 0 1.406-.01l2-2a1 1 0 0 0-1.415-1.414L13 5.585Z" class="Vector" clip-rule="evenodd"/>
  </g>
</svg>
