<svg xmlns="http://www.w3.org/2000/svg" width="24" height="24" fill="currentColor" viewBox="0 0 24 24">
  <g class="warning">
    <g class="Vector">
      <path fill="#556573" d="M12 14a1 1 0 0 1-1-1v-3a1 1 0 1 1 2 0v3a1 1 0 0 1-1 1Zm-1.5 2.5a1.5 1.5 0 1 1 3 0 1.5 1.5 0 0 1-3 0Z"/>
      <path fill="#556573" d="M10.23 3.215c.75-1.424 2.79-1.424 3.54 0l8.343 15.853C22.814 20.4 21.85 22 20.343 22H3.657c-1.505 0-2.47-1.6-1.77-2.932L10.23 3.215ZM20.344 20 12 4.147 3.656 20h16.688Z"/>
    </g>
  </g>
</svg>
