<svg xmlns="http://www.w3.org/2000/svg" width="24" height="24" fill="currentColor" viewBox="0 0 24 24">
  <g class="youtube">
    <path fill="#556573" d="M23.76 7.2s-.233-1.655-.955-2.381c-.914-.957-1.936-.961-2.405-1.018-3.356-.243-8.395-.243-8.395-.243h-.01s-5.039 0-8.395.243c-.469.057-1.49.061-2.405 1.018-.722.726-.951 2.38-.951 2.38S0 9.146 0 11.087v1.819c0 1.94.24 3.885.24 3.885s.233 1.655.95 2.382c.915.956 2.115.923 2.65 1.026 1.92.183 8.16.24 8.16.24s5.044-.01 8.4-.25c.469-.055 1.49-.06 2.405-1.016.722-.727.956-2.382.956-2.382S24 14.85 24 12.905v-1.82c0-1.94-.24-3.885-.24-3.885ZM9.52 15.112V8.367l6.483 3.384-6.483 3.361Z" class="Vector"/>
  </g>
</svg>
